<svg xmlns="http://www.w3.org/2000/svg" viewBox="0 0 100 125" x="0px" y="0px"><title>CSS</title><g><path d="M64.27,5H19.68V95H80.32V21ZM41,88.66a5.29,5.29,0,0,1-2.36.52,6.55,6.55,0,0,1-2.48-.46,5.57,5.57,0,0,1-2-1.37,6.42,6.42,0,0,1-1.34-2.24,9.71,9.71,0,0,1,0-6.06,6.65,6.65,0,0,1,1.34-2.27,5.69,5.69,0,0,1,2-1.41,6.6,6.6,0,0,1,2.54-.48,4.73,4.73,0,0,1,2.26.53,7,7,0,0,1,1.67,1.2l-1.37,1.52a4.22,4.22,0,0,0-1.13-.81A3.17,3.17,0,0,0,38.68,77a3.55,3.55,0,0,0-1.58.35,3.47,3.47,0,0,0-1.22,1,4.76,4.76,0,0,0-.79,1.57A7.09,7.09,0,0,0,34.8,82a7.28,7.28,0,0,0,.28,2.12,4.64,4.64,0,0,0,.8,1.58,3.53,3.53,0,0,0,1.24,1,3.68,3.68,0,0,0,1.61.35,3.11,3.11,0,0,0,1.51-.36,4.71,4.71,0,0,0,1.25-1l1.35,1.5A6,6,0,0,1,41,88.66Zm13.84-2a3.86,3.86,0,0,1-1,1.3,4.87,4.87,0,0,1-1.6.89,6.59,6.59,0,0,1-2.15.33,7.49,7.49,0,0,1-2.78-.53,7.41,7.41,0,0,1-2.36-1.5l1.43-1.67a6.66,6.66,0,0,0,1.76,1.13,4.9,4.9,0,0,0,2,.43A3.19,3.19,0,0,0,52,86.56a1.52,1.52,0,0,0,.65-1.29,1.42,1.42,0,0,0-.17-.72A1.63,1.63,0,0,0,52,84a4,4,0,0,0-.74-.41c-.29-.13-.6-.25-.94-.38l-1.88-.82a6.91,6.91,0,0,1-1.08-.53,4.57,4.57,0,0,1-.95-.76,3.48,3.48,0,0,1-.67-1,3.39,3.39,0,0,1-.25-1.35,3.33,3.33,0,0,1,.36-1.53,3.9,3.9,0,0,1,1-1.23,4.65,4.65,0,0,1,1.51-.82,6,6,0,0,1,1.93-.3,6.25,6.25,0,0,1,2.41.47,6.68,6.68,0,0,1,2,1.27l-1.26,1.56A6.24,6.24,0,0,0,52,77.33,4.4,4.4,0,0,0,50.3,77a2.92,2.92,0,0,0-1.7.43A1.37,1.37,0,0,0,48,78.63a1.2,1.2,0,0,0,.19.68,1.87,1.87,0,0,0,.52.51,3.8,3.8,0,0,0,.76.39l.9.36,1.81.78a7.37,7.37,0,0,1,1.2.59,4.3,4.3,0,0,1,.95.78,3.22,3.22,0,0,1,.62,1,3.75,3.75,0,0,1,.22,1.34A3.67,3.67,0,0,1,54.8,86.67Zm12.65,0a3.86,3.86,0,0,1-1,1.3,4.87,4.87,0,0,1-1.6.89,6.59,6.59,0,0,1-2.15.33,7.49,7.49,0,0,1-2.78-.53,7.41,7.41,0,0,1-2.36-1.5L59,85.48a6.66,6.66,0,0,0,1.76,1.13,4.9,4.9,0,0,0,2,.43,3.19,3.19,0,0,0,1.92-.48,1.52,1.52,0,0,0,.65-1.29,1.42,1.42,0,0,0-.17-.72,1.63,1.63,0,0,0-.47-.52,4,4,0,0,0-.74-.41c-.29-.13-.6-.25-.94-.38l-1.88-.82A6.91,6.91,0,0,1,60,81.9a4.57,4.57,0,0,1-.95-.76,3.48,3.48,0,0,1-.67-1,3.39,3.39,0,0,1-.25-1.35,3.33,3.33,0,0,1,.36-1.53,3.9,3.9,0,0,1,1-1.23A4.65,4.65,0,0,1,61,75.17a6,6,0,0,1,1.93-.3,6.25,6.25,0,0,1,2.41.47,6.68,6.68,0,0,1,2,1.27l-1.26,1.56a6.24,6.24,0,0,0-1.45-.86A4.4,4.4,0,0,0,62.94,77a2.92,2.92,0,0,0-1.7.43,1.37,1.37,0,0,0-.62,1.19,1.2,1.2,0,0,0,.19.68,1.87,1.87,0,0,0,.52.51,3.8,3.8,0,0,0,.76.39l.9.36,1.81.78a7.37,7.37,0,0,1,1.2.59,4.3,4.3,0,0,1,.95.78,3.22,3.22,0,0,1,.62,1,3.75,3.75,0,0,1,.22,1.34A3.67,3.67,0,0,1,67.45,86.67Zm10-17H22.54V7.86H63.16v14.3h14.3Z"/><path d="M42.07,49.2q0-.55,0-1c0-.28,0-.55.07-.8s.05-.51.07-.77,0-.55,0-.88a1.15,1.15,0,0,0-.14-.54,1.32,1.32,0,0,0-.45-.47,2.79,2.79,0,0,0-.86-.35,6.41,6.41,0,0,0-1.37-.16V42.16A6.51,6.51,0,0,0,40.83,42a2.83,2.83,0,0,0,.86-.35,1.32,1.32,0,0,0,.45-.47,1.16,1.16,0,0,0,.14-.54c0-.32,0-.61,0-.87s0-.52-.07-.77-.05-.52-.07-.8,0-.6,0-1a4,4,0,0,1,.23-1.45,2.12,2.12,0,0,1,.72-.95,3.14,3.14,0,0,1,1.22-.52A8.55,8.55,0,0,1,46,34.15h1.75V36H47a7.44,7.44,0,0,0-1,.05,1.45,1.45,0,0,0-.59.19.72.72,0,0,0-.29.4,2.23,2.23,0,0,0-.08.66q0,.8,0,1.58c0,.52,0,1.09,0,1.71a2.56,2.56,0,0,1-.52,1.8,2.94,2.94,0,0,1-1.68.73v.08a2.94,2.94,0,0,1,1.68.73,2.56,2.56,0,0,1,.52,1.8q0,.93,0,1.71t0,1.58a2.2,2.2,0,0,0,.08.67.73.73,0,0,0,.29.39,1.48,1.48,0,0,0,.59.19,7.75,7.75,0,0,0,1,.05h.78v1.9H46a8.55,8.55,0,0,1-1.77-.16A3.14,3.14,0,0,1,43,51.6a2.11,2.11,0,0,1-.72-.95A4,4,0,0,1,42.07,49.2Z"/><path d="M53,50.38a7.57,7.57,0,0,0,1-.05,1.47,1.47,0,0,0,.59-.19.73.73,0,0,0,.3-.39,2.2,2.2,0,0,0,.08-.67q0-.8,0-1.58t0-1.71a2.56,2.56,0,0,1,.52-1.8,2.94,2.94,0,0,1,1.68-.73v-.08a2.94,2.94,0,0,1-1.68-.73,2.56,2.56,0,0,1-.52-1.8c0-.62,0-1.19,0-1.71s0-1,0-1.58a2.23,2.23,0,0,0-.08-.66.72.72,0,0,0-.3-.4A1.45,1.45,0,0,0,54,36.1,7.26,7.26,0,0,0,53,36h-.78v-1.9H54a5.25,5.25,0,0,1,3,.67,2.76,2.76,0,0,1,.95,2.4q0,.55,0,1c0,.28,0,.55-.08.8s-.06.51-.09.77,0,.55,0,.87a1.16,1.16,0,0,0,.14.54,1.29,1.29,0,0,0,.46.47,3,3,0,0,0,.88.35,6.49,6.49,0,0,0,1.37.16v2.11a6.39,6.39,0,0,0-1.37.16,3,3,0,0,0-.88.35,1.29,1.29,0,0,0-.46.47,1.15,1.15,0,0,0-.14.54c0,.32,0,.62,0,.88s0,.52.09.77.06.52.08.8,0,.6,0,1a4,4,0,0,1-.23,1.45,2.12,2.12,0,0,1-.72.95,3.15,3.15,0,0,1-1.22.52,8.55,8.55,0,0,1-1.77.16H52.26v-1.9Z"/></g><text x="0" y="115" fill="#000000" font-size="5px" font-weight="bold" font-family="'Helvetica Neue', Helvetica, Arial-Unicode, Arial, Sans-serif"></text><text x="0" y="120" fill="#000000" font-size="5px" font-weight="bold" font-family="'Helvetica Neue', Helvetica, Arial-Unicode, Arial, Sans-serif"></text></svg>